<mxfile host="app.diagrams.net" agent="Mozilla/5.0 (Windows NT 10.0; Win64; x64) AppleWebKit/537.36 (KHTML, like Gecko) Chrome/131.0.0.0 Safari/537.36 Edg/131.0.0.0" version="24.9.1">
  <diagram name="หน้า-1" id="WXTVXA3mQ7QbXLLawErr">
    <mxGraphModel dx="2380" dy="1067" grid="1" gridSize="10" guides="1" tooltips="1" connect="1" arrows="1" fold="1" page="1" pageScale="1" pageWidth="827" pageHeight="1169" math="0" shadow="0">
      <root>
        <mxCell id="0" />
        <mxCell id="1" parent="0" />
        <mxCell id="2CftbTrwiL6cRvHvEk_t-10" value="" style="edgeStyle=orthogonalEdgeStyle;rounded=0;orthogonalLoop=1;jettySize=auto;html=1;" edge="1" parent="1" source="2CftbTrwiL6cRvHvEk_t-1" target="2CftbTrwiL6cRvHvEk_t-3">
          <mxGeometry relative="1" as="geometry" />
        </mxCell>
        <mxCell id="2CftbTrwiL6cRvHvEk_t-1" value="Start" style="ellipse;whiteSpace=wrap;html=1;" vertex="1" parent="1">
          <mxGeometry x="354" y="70" width="120" height="80" as="geometry" />
        </mxCell>
        <mxCell id="2CftbTrwiL6cRvHvEk_t-11" value="" style="edgeStyle=orthogonalEdgeStyle;rounded=0;orthogonalLoop=1;jettySize=auto;html=1;" edge="1" parent="1" source="2CftbTrwiL6cRvHvEk_t-3" target="2CftbTrwiL6cRvHvEk_t-4">
          <mxGeometry relative="1" as="geometry" />
        </mxCell>
        <mxCell id="2CftbTrwiL6cRvHvEk_t-3" value="รับข้อมูล รหัสประจำตัวพนักงาน" style="shape=parallelogram;perimeter=parallelogramPerimeter;whiteSpace=wrap;html=1;fixedSize=1;" vertex="1" parent="1">
          <mxGeometry x="319" y="190" width="190" height="60" as="geometry" />
        </mxCell>
        <mxCell id="2CftbTrwiL6cRvHvEk_t-12" value="" style="edgeStyle=orthogonalEdgeStyle;rounded=0;orthogonalLoop=1;jettySize=auto;html=1;" edge="1" parent="1" source="2CftbTrwiL6cRvHvEk_t-4" target="2CftbTrwiL6cRvHvEk_t-5">
          <mxGeometry relative="1" as="geometry" />
        </mxCell>
        <mxCell id="2CftbTrwiL6cRvHvEk_t-4" value="รับข้อมูล ชั่วโมงที่ทำงาน" style="shape=parallelogram;perimeter=parallelogramPerimeter;whiteSpace=wrap;html=1;fixedSize=1;" vertex="1" parent="1">
          <mxGeometry x="319" y="290" width="190" height="60" as="geometry" />
        </mxCell>
        <mxCell id="2CftbTrwiL6cRvHvEk_t-13" value="" style="edgeStyle=orthogonalEdgeStyle;rounded=0;orthogonalLoop=1;jettySize=auto;html=1;" edge="1" parent="1" source="2CftbTrwiL6cRvHvEk_t-5" target="2CftbTrwiL6cRvHvEk_t-6">
          <mxGeometry relative="1" as="geometry" />
        </mxCell>
        <mxCell id="2CftbTrwiL6cRvHvEk_t-5" value="รับข้อมูล รายได้ต่อชั่วโมง" style="shape=parallelogram;perimeter=parallelogramPerimeter;whiteSpace=wrap;html=1;fixedSize=1;" vertex="1" parent="1">
          <mxGeometry x="319" y="390" width="190" height="60" as="geometry" />
        </mxCell>
        <mxCell id="2CftbTrwiL6cRvHvEk_t-14" value="" style="edgeStyle=orthogonalEdgeStyle;rounded=0;orthogonalLoop=1;jettySize=auto;html=1;" edge="1" parent="1" source="2CftbTrwiL6cRvHvEk_t-6" target="2CftbTrwiL6cRvHvEk_t-7">
          <mxGeometry relative="1" as="geometry" />
        </mxCell>
        <mxCell id="2CftbTrwiL6cRvHvEk_t-6" value="คำนวณ&amp;nbsp;&lt;div&gt;ชั่วโมงที่ทำงาน x รายได้ต่อชั่วโมง&lt;/div&gt;" style="rounded=0;whiteSpace=wrap;html=1;" vertex="1" parent="1">
          <mxGeometry x="319" y="490" width="190" height="60" as="geometry" />
        </mxCell>
        <mxCell id="2CftbTrwiL6cRvHvEk_t-15" value="" style="edgeStyle=orthogonalEdgeStyle;rounded=0;orthogonalLoop=1;jettySize=auto;html=1;" edge="1" parent="1" source="2CftbTrwiL6cRvHvEk_t-7" target="2CftbTrwiL6cRvHvEk_t-8">
          <mxGeometry relative="1" as="geometry" />
        </mxCell>
        <mxCell id="2CftbTrwiL6cRvHvEk_t-7" value="แสดง รหัสประจำตัวพนักงาน" style="shape=parallelogram;perimeter=parallelogramPerimeter;whiteSpace=wrap;html=1;fixedSize=1;" vertex="1" parent="1">
          <mxGeometry x="319" y="590" width="190" height="60" as="geometry" />
        </mxCell>
        <mxCell id="2CftbTrwiL6cRvHvEk_t-17" value="" style="edgeStyle=orthogonalEdgeStyle;rounded=0;orthogonalLoop=1;jettySize=auto;html=1;" edge="1" parent="1" source="2CftbTrwiL6cRvHvEk_t-8" target="2CftbTrwiL6cRvHvEk_t-9">
          <mxGeometry relative="1" as="geometry" />
        </mxCell>
        <mxCell id="2CftbTrwiL6cRvHvEk_t-8" value="แสดง เงินเดือนของ พนักงาน&amp;nbsp;" style="shape=parallelogram;perimeter=parallelogramPerimeter;whiteSpace=wrap;html=1;fixedSize=1;" vertex="1" parent="1">
          <mxGeometry x="319" y="690" width="190" height="60" as="geometry" />
        </mxCell>
        <mxCell id="2CftbTrwiL6cRvHvEk_t-9" value="End" style="ellipse;whiteSpace=wrap;html=1;" vertex="1" parent="1">
          <mxGeometry x="354" y="790" width="120" height="80" as="geometry" />
        </mxCell>
      </root>
    </mxGraphModel>
  </diagram>
</mxfile>
